# xmcd
#
# Track frame offsets: 
#        150
#        18743
#        37117
#        62758
#        64786
#        78872
#        117122
#        132572
#        146270
#        167563
#        181291
#        210464
#        211974
#        232805
#        255876
#        278572
#        282771
#
# Disc length: 4016 seconds
#
# Revision: 0
# Processed by: cddbd v1.5.2PL0 Copyright (c) Steve Scherf et al.
# Submitted via: ExactAudioCopyFreeDBPlugin 1.0
#
DISCID=e80fae11
DTITLE=Filippo Mineccia - The Paisiello Album - Arias for Castrato
DYEAR=2018
DGENRE=Opera
TTITLE0=Antigono (Napoli 1785) Aria "Meglio Rifletti"
TTITLE1=Catone in Utica (Napoli 1789) Aria "So che pietà non hai"
TTITLE2=Artaserse (Napoli 1783) Aria "Deh respirar"
TTITLE3=Antigono (Napoli 1785) Recitativo "Deh non opporti..."
TTITLE4=Antigono (Napoli 1785) Aria "Già che morir degg'io"
TTITLE5=Alessandro (Modena 1774) Aria "Destrier che all'armi usato"
TTITLE6=La Pace (Napoli c1799) Aria "Fiumicello che riceve"
TTITLE7=I Gran Cid (Firenze 1775) Aria "Tu del popolo"
TTITLE8=Demetrio (Modena 1771) Ouverture
TTITLE9=Artenice (Napoli 1784) Aria "Guarda s'imbruna"
TTITLE10=Cantata Il ritorno di Perseo (Napoli 1785) Aria "La tua fe"
TTITLE11=Demetrio (Modena 1771) Recitativo "Eh che in amore"
TTITLE12=Demetrio (Modena 1771) Aria "Trova un sol che sia costante"
TTITLE13=Demetrio (Modena 1771) Aria "Di quell'ingiusto sdegno"
TTITLE14=Cantata per San Gennaro (Napoli 1785) Aria "Per me de' mortal
TTITLE14=i"
TTITLE15=Oreste (Napoli 1783) Recitativo "Oreste, Elettra oh Dio!"
TTITLE16=Oreste (Napoli 1783) Aria "Ah che in petto!"
EXTD=
EXTT0=
EXTT1=
EXTT2=
EXTT3=
EXTT4=
EXTT5=
EXTT6=
EXTT7=
EXTT8=
EXTT9=
EXTT10=
EXTT11=
EXTT12=
EXTT13=
EXTT14=
EXTT15=
EXTT16=
PLAYORDER=
